<?xml version="1.0" encoding="utf-8"?>
<!-- Generator: Adobe Illustrator 27.1.1, SVG Export Plug-In . SVG Version: 6.00 Build 0)  -->
<svg version="1.1" id="Capa_1" xmlns="http://www.w3.org/2000/svg" xmlns:xlink="http://www.w3.org/1999/xlink" x="0px" y="0px"
	 viewBox="0 0 12 12" style="enable-background:new 0 0 12 12;" xml:space="preserve">
<style type="text/css">
	.st0{fill:#0077C4;}
</style>
<path class="st0" d="M3.1,0.1C3,0.1,2.9,0.2,2.8,0.3C2.7,0.3,2.6,0.4,2.6,0.6C2.5,0.8,2.5,1,2.6,1.2c0,0.1,0.1,0.2,0.2,0.3L7.3,6
	l-4.5,4.5c-0.1,0.1-0.1,0.2-0.2,0.3c-0.1,0.2-0.1,0.5,0,0.7c0,0.1,0.1,0.2,0.2,0.3c0.1,0.1,0.2,0.1,0.3,0.2C3.2,12,3.3,12,3.4,12
	c0.1,0,0.2,0,0.3-0.1c0.1,0,0.2-0.1,0.3-0.2l5.2-5.1c0.1-0.1,0.2-0.2,0.2-0.3c0-0.1,0.1-0.2,0.1-0.3c0-0.1,0-0.2-0.1-0.3
	c0-0.1-0.1-0.2-0.2-0.3L4,0.3C4,0.2,3.9,0.1,3.8,0.1C3.7,0,3.5,0,3.4,0C3.3,0,3.2,0,3.1,0.1z"/>
</svg>
