<svg width="12" height="13" viewBox="0 0 12 13" fill="none" xmlns="http://www.w3.org/2000/svg">
<path d="M12 6.35591C12 8.04161 11.3679 9.65826 10.2426 10.8502C9.11742 12.0422 7.5913 12.7118 6 12.7118C4.4087 12.7118 2.88258 12.0422 1.75736 10.8502C0.632141 9.65826 0 8.04161 0 6.35591C0 4.67022 0.632141 3.05357 1.75736 1.8616C2.88258 0.669639 4.4087 0 6 0C7.5913 0 9.11742 0.669639 10.2426 1.8616C11.3679 3.05357 12 4.67022 12 6.35591ZM4.0155 3.6912C3.94509 3.6166 3.84958 3.5747 3.75 3.5747C3.65042 3.5747 3.55491 3.6166 3.4845 3.6912C3.41408 3.76579 3.37453 3.86696 3.37453 3.97245C3.37453 4.07793 3.41408 4.1791 3.4845 4.25369L5.46975 6.35591L3.4845 8.45813C3.44963 8.49506 3.42198 8.53891 3.40311 8.58717C3.38424 8.63543 3.37453 8.68715 3.37453 8.73938C3.37453 8.79161 3.38424 8.84333 3.40311 8.89159C3.42198 8.93985 3.44963 8.9837 3.4845 9.02063C3.55491 9.09522 3.65042 9.13713 3.75 9.13713C3.79931 9.13713 3.84813 9.12684 3.89369 9.10685C3.93924 9.08686 3.98063 9.05756 4.0155 9.02063L6 6.91762L7.9845 9.02063C8.01937 9.05756 8.06076 9.08686 8.10631 9.10685C8.15187 9.12684 8.20069 9.13713 8.25 9.13713C8.29931 9.13713 8.34813 9.12684 8.39369 9.10685C8.43924 9.08686 8.48063 9.05756 8.5155 9.02063C8.55037 8.9837 8.57802 8.93985 8.59689 8.89159C8.61576 8.84333 8.62547 8.79161 8.62547 8.73938C8.62547 8.68715 8.61576 8.63543 8.59689 8.58717C8.57802 8.53891 8.55037 8.49506 8.5155 8.45813L6.53025 6.35591L8.5155 4.25369C8.55037 4.21676 8.57802 4.17291 8.59689 4.12466C8.61576 4.0764 8.62547 4.02468 8.62547 3.97245C8.62547 3.92021 8.61576 3.86849 8.59689 3.82023C8.57802 3.77198 8.55037 3.72813 8.5155 3.6912C8.48063 3.65426 8.43924 3.62496 8.39369 3.60498C8.34813 3.58499 8.29931 3.5747 8.25 3.5747C8.20069 3.5747 8.15187 3.58499 8.10631 3.60498C8.06076 3.62496 8.01937 3.65426 7.9845 3.6912L6 5.79421L4.0155 3.6912Z" fill="#DE0101"/>
</svg>
